<?xml version="1.0" encoding="UTF-8"?>
<svg width="13px" height="8px" viewBox="0 0 13 8" version="1.1" xmlns="http://www.w3.org/2000/svg" xmlns:xlink="http://www.w3.org/1999/xlink">
    <!-- Generator: Sketch 50.2 (55047) - http://www.bohemiancoding.com/sketch -->
    <title>Path 2</title>
    <desc>Created with Sketch.</desc>
    <defs></defs>
    <g id="Page-1" stroke="none" stroke-width="1" fill="none" fill-rule="evenodd">
        <g id="Homepage-Cli-Copy" transform="translate(-227.000000, -34.000000)" fill="#A7A37E">
            <path d="M233.519903,38.8932563 L237.956436,34.5349408 C238.134665,34.3598533 238.374519,34.26175 238.624362,34.26175 L238.624362,34.26175 C238.873999,34.26175 239.113446,34.3607634 239.290178,34.5370718 L239.404007,34.6506278 C239.592064,34.8382328 239.697751,35.0929508 239.697751,35.3585837 L239.697751,35.4834698 C239.697751,35.7499525 239.591388,36.0054132 239.402269,36.1931553 L234.22539,41.3323443 C233.835085,41.7198078 233.205151,41.7193751 232.815378,41.3313757 L227.653514,36.1929925 C227.46499,36.0053267 227.359007,35.7502821 227.359007,35.4842756 L227.359007,35.376311 C227.359007,35.1002459 227.473131,34.8364619 227.674344,34.6474505 L227.797472,34.5317892 C227.982143,34.3583169 228.225987,34.26175 228.479356,34.26175 L228.479356,34.26175 C228.731937,34.26175 228.974216,34.3618818 229.153099,34.5402015 L233.519903,38.8932563 Z" id="Path-2"></path>
        </g>
    </g>
</svg>