<?xml version="1.0" encoding="utf-8"?>
<!-- Generator: Adobe Illustrator 22.0.1, SVG Export Plug-In . SVG Version: 6.00 Build 0)  -->
<svg version="1.1" id="Calque_1" xmlns:vectornator="http://vectornator.io"
	 xmlns="http://www.w3.org/2000/svg" xmlns:xlink="http://www.w3.org/1999/xlink" x="0px" y="0px" viewBox="0 0 223.5 25.2"
	 style="enable-background:new 0 0 223.5 25.2;" xml:space="preserve">
<style type="text/css">
	.st0{fill:#49636B;}
	.st1{fill:#FFFFFF;}
	.st2{fill:#93A1AF;}
</style>
<g id="Calque_1_1_" vectornator:layerName="Calque 1">
	<path class="st0" d="M21.1,2.4"/>
	<path class="st0" d="M0,12.6c0,8.7,3.7,12.6,11.5,12.6c2.8,0,7.8-0.8,7.8-2.9c0-0.6-0.9-3.1-2.1-3.1c-0.5,0-2.4,1.4-5.8,1.4
		c-4,0-6-2.7-6-8s1.9-7.9,6.1-7.9c3.3,0,4.7,1.1,5.2,1.1c0.9,0,2.3-2.3,2.3-3.3c0-1.5-4.2-2.5-7.3-2.5C3.9,0.1,0,4.2,0,12.6z"/>
	<path class="st0" d="M20.6,23.9c0,0.7,0.6,1.1,2.1,1.1h1.2c1.5,0,2.1-0.4,2.1-1.1v-8.6h1.4c2.3,0,2.8,0.7,3.5,2.1l2.8,6.8
		c0.2,0.6,1,0.7,2,0.7h1.4c1.4,0,2.1-0.3,2.1-0.7c0-0.2-0.1-0.4-0.2-0.7L36,15.9c-0.6-1.5-1.6-2.9-2.5-3.2v-0.1
		c2.4-0.9,4.1-2.9,4.1-5.6c0-4.2-2.7-6.6-8.7-6.6H22c-1,0-1.4,0.4-1.4,1.4V23.9z M26,10.7V5h3.1c1.8,0,2.9,1.1,2.9,2.7
		c0,1.7-1.3,3-2.7,3H26z"/>
	<path class="st0" d="M67.8,24.2c0.1,0.5,0.8,0.7,1.9,0.7h2.5c1,0,1.8-0.2,1.9-0.7l3.6-14.5l3.4,14.5c0.1,0.5,0.9,0.7,1.9,0.7h2.6
		c1,0,1.8-0.2,1.9-0.7l5.7-22.5c0-0.2,0.1-0.4,0.1-0.5c0-0.6-0.7-0.9-2.2-0.9h-0.4c-1.4,0-2.2,0.4-2.4,1.1l-2.7,11.3
		c-0.3,1.3-0.7,3.4-1.2,5.3c-0.4-2-0.9-4-1.2-5.3L80.6,1c-0.1-0.6-0.8-0.7-1.9-0.7h-1.3c-1.1,0-1.8,0.2-1.9,0.7l-2.9,11.6
		c-0.3,1.2-0.9,3.1-1.2,5.1c-0.4-2-0.8-3.9-1.1-5.1L67.6,1.3c-0.2-0.7-1-1.1-2.4-1.1h-0.9c-1.5,0-2.2,0.4-2.2,0.9
		c0,0.1,0,0.3,0.1,0.5L67.8,24.2z"/>
	<path class="st0" d="M95.2,23.4c0,1,0.4,1.4,1.4,1.4h7.9c7.2,0,11.2-4.4,11.2-12.3s-4-12.3-11.2-12.3h-7.9c-1,0-1.4,0.4-1.4,1.4
		V23.4z M100.6,20.2V4.9h3.8c3.8,0,5.7,2.7,5.7,7.7s-1.9,7.7-5.7,7.7H100.6z"/>
	<path class="st0" d="M114,24.1c0,0.5,0.7,0.8,2.1,0.8h1.4c0.8,0,1.4-0.2,1.6-0.7l1.4-4.3h8.3l1.4,4.3c0.2,0.6,0.9,0.7,2,0.7h1.5
		c1.2,0,1.8-0.3,1.8-0.8c0-0.2,0-0.4-0.1-0.6L127.7,1c-0.2-0.6-1-0.7-2-0.7h-1.8c-1,0-1.8,0.2-2,0.7l-7.7,22.6
		C114.1,23.8,114,24,114,24.1z M122.1,15.3l2.1-6.2c0.2-0.6,0.5-2.2,0.5-2.2h0.1c0,0,0.4,1.8,0.5,2.2l2,6.2H122.1z"/>
	<path class="st0" d="M136.7,23.8c0,0.7,0.6,1.1,2.1,1.1h1c1.5,0,2.1-0.4,2.1-1.1V9.6l9.4,14.4c0.5,0.8,1.3,0.9,2.3,0.9h1.3
		c1.5,0,2.1-0.4,2.1-1.1V1.3c0-0.7-0.6-1.1-2.1-1.1h-1c-1.5,0-2.1,0.4-2.1,1.1v14l-9.2-14.2c-0.5-0.8-1.3-0.9-2.3-0.9h-1.5
		c-1.5,0-2.1,0.4-2.1,1.1V23.8z"/>
	<path class="st0" d="M159.4,23.8c0,0.7,0.6,1.2,2.1,1.2h1.2c1.5,0,2.1-0.4,2.1-1.2V1.3c0-0.7-0.6-1.2-2.1-1.2h-1.2
		c-1.5,0-2.1,0.4-2.1,1.2V23.8z"/>
	<path class="st0" d="M167.9,24.8h17c0.7,0,1.1-0.5,1.1-1.8V22c0-1.2-0.3-1.8-1.1-1.8h-10.7l11.7-16.5c0-0.1,0-0.1,0-0.3
		c0-0.9-0.7-3.2-1.3-3.2h-16c-0.7,0-1.1,0.5-1.1,1.8v1.1c0,1.2,0.3,1.8,1.1,1.8h9.8l-11.8,16.5c0,0.1-0.1,0.2-0.1,0.4
		C166.5,22.7,167.3,24.8,167.9,24.8z"/>
	<path class="st0" d="M204.9,23.8c0,0.7,0.6,1.1,2.1,1.1h1.2c1.5,0,2.1-0.4,2.1-1.1v-8.6h1.4c2.3,0,2.8,0.7,3.5,2.1l2.8,6.8
		c0.2,0.6,1,0.7,2,0.7h1.4c1.4,0,2.1-0.3,2.1-0.7c0-0.2-0.1-0.4-0.2-0.7l-3.1-7.7c-0.6-1.5-1.6-2.9-2.5-3.2v-0.1
		c2.4-0.9,4.1-2.9,4.1-5.6c0-4.2-2.7-6.6-8.7-6.6h-6.8c-1,0-1.4,0.4-1.4,1.4V23.8z M210.3,10.6V4.9h3.1c1.8,0,2.9,1.1,2.9,2.7
		c0,1.7-1.3,3-2.7,3H210.3z"/>
	<path class="st0" d="M187.7,23.4c0,1,0.4,1.4,1.4,1.4H202c0.7,0,1.1-0.5,1.1-1.8V22c0-1.2-0.3-1.8-1.1-1.8h-8.9v-5.7h7.9
		c0.7,0,1.1-0.5,1.1-1.8v-1.1c0-1.2-0.3-1.8-1.1-1.8h-7.9V4.9h8.8c0.7,0,1.1-0.5,1.1-1.8V2c0-1.2-0.3-1.8-1.1-1.8h-12.8
		c-1,0-1.4,0.4-1.4,1.4V23.4z"/>
</g>
<g id="Photo" vectornator:layerName="Photo">
	<path class="st1" d="M50.5,14.3c-4.2,0-7.6,3.1-8.1,7.2c1.9,2.3,5,3.9,8.6,3.9c3.8,0,7-1.7,8.9-4.2c-0.6-3.9-4-6.8-8.1-6.8H50.5z"
		/>
	<path class="st2" d="M51,0.5c-5.8,0-10.5,4-10.5,8.9v7.1c0,1.6,0.5,3,1.3,4.3c0.2,0.3,0.4,0.5,0.6,0.8c0.5-4,3.9-7.2,8.1-7.2h1.4
		c4.1,0,7.4,3,8.1,6.8c0.1-0.1,0.2-0.3,0.3-0.4c0.8-1.3,1.3-2.7,1.3-4.3V9.4C61.6,4.5,56.8,0.5,51,0.5z"/>
	<path class="st1" d="M46.3,7.5c0-2.6,2.1-4.7,4.8-4.7c2.6,0,4.8,2.1,4.8,4.7s-2.1,4.7-4.8,4.7C48.4,12.2,46.3,10.1,46.3,7.5z"/>
</g>
</svg>
